<?xml version="1.0" standalone="no"?>
<!DOCTYPE svg PUBLIC "-//W3C//DTD SVG 20010904//EN"
 "http://www.w3.org/TR/2001/REC-SVG-20010904/DTD/svg10.dtd">
<svg version="1.0" xmlns="http://www.w3.org/2000/svg"
 width="1012.000000pt" height="1012.000000pt" viewBox="0 0 1012.000000 1012.000000"
 preserveAspectRatio="xMidYMid meet">
<metadata>
Created by potrace 1.14, written by Peter Selinger 2001-2017
</metadata>
<g transform="translate(0.000000,1012.000000) scale(0.100000,-0.100000)"
fill="#000000" stroke="none">
<path d="M5007 7684 c-1 -1 -101 -5 -222 -8 -227 -7 -313 -11 -425 -21 -36 -3
-90 -7 -120 -10 -68 -6 -147 -14 -180 -20 -14 -2 -45 -7 -68 -10 -120 -17
-245 -71 -314 -137 -99 -96 -122 -199 -83 -383 14 -62 160 -345 273 -526 62
-100 315 -481 362 -544 148 -202 390 -513 479 -615 12 -14 32 -36 43 -50 55
-65 150 -173 226 -257 l83 -91 52 56 c29 31 57 62 62 68 6 6 28 31 50 55 23
24 90 103 150 174 60 72 111 132 114 135 4 3 49 59 100 125 52 66 111 140 131
165 131 162 431 604 577 850 197 333 246 450 247 595 0 79 -3 97 -28 147 -72
147 -235 223 -541 254 -33 3 -71 7 -85 9 -14 2 -65 7 -115 10 -49 3 -112 8
-140 10 -74 6 -624 22 -628 19z"/>
<path d="M2039 6394 c-80 -24 -137 -100 -156 -209 -17 -100 -5 -262 34 -440
112 -516 425 -1143 864 -1732 54 -72 122 -155 151 -185 174 -178 400 -206 635
-78 138 76 465 305 624 438 75 62 240 205 276 238 l43 39 -106 125 c-104 122
-188 218 -309 350 -178 194 -552 556 -735 711 -41 35 -77 66 -80 69 -11 12
-160 130 -245 194 -49 37 -97 73 -107 81 -40 32 -283 188 -382 245 -245 141
-395 186 -507 154z"/>
<path d="M7855 6359 c-92 -20 -200 -70 -355 -164 -117 -71 -295 -189 -310
-205 -3 -3 -21 -17 -40 -30 -56 -38 -307 -239 -405 -324 -246 -213 -668 -630
-835 -826 -12 -14 -45 -52 -74 -85 -29 -33 -95 -109 -145 -170 -124 -148 -122
-145 -153 -187 -15 -20 -34 -42 -41 -50 -7 -7 -33 -40 -57 -73 -25 -33 -47
-62 -50 -65 -11 -10 -178 -238 -256 -350 -230 -329 -480 -750 -540 -905 -38
-100 -43 -220 -10 -290 46 -99 154 -168 303 -192 87 -14 331 -8 423 11 222 46
435 131 667 267 77 45 229 145 243 159 3 3 49 38 103 79 54 41 104 79 110 85
7 6 28 24 47 40 139 113 394 366 555 550 33 37 65 73 70 80 6 6 27 32 48 58
21 26 43 53 50 60 15 16 211 276 245 326 203 296 351 545 473 798 38 79 69
145 69 148 0 3 11 29 24 58 152 332 260 803 224 984 -7 39 -41 101 -73 137
-58 65 -200 100 -310 76z"/>
</g>
</svg>
